<mxfile host="app.diagrams.net" modified="2023-06-01T12:30:12.503Z" agent="Mozilla/5.0 (Windows NT 10.0; Win64; x64) AppleWebKit/537.36 (KHTML, like Gecko) Chrome/113.0.0.0 Safari/537.36" version="21.3.6" etag="4PKii5g2HK1Sd7aqMQVr" type="github">
  <diagram name="Page-1" id="3JP0GkxSGxX3xCbw8pJT">
    <mxGraphModel>
      <root>
        <mxCell id="0" />
        <mxCell id="1" parent="0" />
      </root>
    </mxGraphModel>
  </diagram>
</mxfile>
